<svg xmlns="http://www.w3.org/2000/svg" width="36" height="32.727" viewBox="0 0 36 32.727">
  <path id="MdiMonitorDashboard" d="M33.727,24.909V5.273H4.273V24.909H33.727M33.727,2A3.273,3.273,0,0,1,37,5.273V24.909a3.273,3.273,0,0,1-3.273,3.273H22.273v3.273h3.273v3.273H12.455V31.455h3.273V28.182H4.273A3.273,3.273,0,0,1,1,24.909V5.273A3.261,3.261,0,0,1,4.273,2H33.727M7.545,8.545H22.273v8.182H7.545V8.545m16.364,0h6.545v3.273H23.909V8.545m6.545,4.909v8.182H23.909V13.455h6.545M7.545,18.364h6.545v3.273H7.545V18.364m8.182,0h6.545v3.273H15.727Z" transform="translate(-1 -2)" fill="#a8cce0"/>
</svg>
