<svg xmlns="http://www.w3.org/2000/svg" width="24.059" height="27.067" viewBox="0 0 24.059 27.067">
  <path id="MdiDatabase_1_" data-name="MdiDatabase (1)" d="M16.03,3C9.383,3,4,5.692,4,9.015S9.383,15.03,16.03,15.03s12.03-2.692,12.03-6.015S22.676,3,16.03,3M4,12.022v4.511c0,3.323,5.383,6.015,12.03,6.015s12.03-2.692,12.03-6.015V12.022c0,3.323-5.383,6.015-12.03,6.015S4,15.345,4,12.022m0,7.519v4.511c0,3.323,5.383,6.015,12.03,6.015s12.03-2.692,12.03-6.015V19.541c0,3.323-5.383,6.015-12.03,6.015S4,22.864,4,19.541Z" transform="translate(-4 -3)" fill="#fff"/>
</svg>
